<?xml version="1.0" encoding="UTF-8"?>
<!-- Generator: Adobe Illustrator 23.0.6, SVG Export Plug-In . SVG Version: 6.00 Build 0)  -->
<svg version="1.1" id="Layer_1" xmlns="http://www.w3.org/2000/svg" xmlns:xlink="http://www.w3.org/1999/xlink" x="0px" y="0px" viewBox="0 0 504 504" style="enable-background:new 0 0 504 504;" xml:space="preserve">
<style type="text/css">
	.st0{fill:#0B3D91;}
	.st1{fill:#FFFFFF;}
	.st2{fill:#FC3D21;}
	.st3{clip-path:url(#SVGID_2_);fill:#FFFFFF;}
	.st4{clip-path:url(#SVGID_4_);fill:#FFFFFF;}
</style>
<g>
	<path class="st0" d="M425.11,252c0,98.73-81.27,180-180,180s-180-81.27-180-180c0-98.74,81.26-180,180-180   S425.11,153.26,425.11,252z"/>
	<path class="st1" d="M247.59,88.35c0,0.8-0.66,1.47-1.47,1.47c-0.8,0-1.46-0.66-1.46-1.47c0-0.8,0.66-1.46,1.46-1.46   C246.93,86.89,247.59,87.55,247.59,88.35z"/>
	<path class="st1" d="M257.74,110.57c0,0.99-0.81,1.8-1.8,1.8c-0.99,0-1.8-0.81-1.8-1.8c0-0.99,0.82-1.8,1.8-1.8   C256.93,108.77,257.74,109.58,257.74,110.57z"/>
	<path class="st1" d="M284.13,146.89c0,0.99-0.81,1.8-1.8,1.8c-0.99,0-1.8-0.82-1.8-1.8c0-0.99,0.81-1.8,1.8-1.8   C283.32,145.08,284.13,145.9,284.13,146.89z"/>
	<path class="st1" d="M241.73,123.09c0,0.8-0.66,1.46-1.46,1.46c-0.8,0-1.47-0.66-1.47-1.46s0.66-1.46,1.47-1.46   C241.07,121.62,241.73,122.28,241.73,123.09z"/>
	<path class="st1" d="M257.52,131.44c0,0.8-0.66,1.46-1.46,1.46c-0.8,0-1.46-0.66-1.46-1.46c0-0.8,0.66-1.47,1.46-1.47   C256.86,129.97,257.52,130.63,257.52,131.44z"/>
	<path class="st1" d="M236.99,108.09c0,0.99-0.81,1.8-1.8,1.8c-0.99,0-1.8-0.82-1.8-1.8c0-0.99,0.81-1.8,1.8-1.8   C236.18,106.28,236.99,107.1,236.99,108.09z"/>
	<path class="st1" d="M213.08,122.64c0,0.8-0.66,1.46-1.47,1.46s-1.46-0.66-1.46-1.46s0.66-1.47,1.46-1.47   S213.08,121.84,213.08,122.64z"/>
	<path class="st1" d="M217.37,125.57c0,0.8-0.66,1.47-1.47,1.47c-0.8,0-1.46-0.66-1.46-1.47c0-0.8,0.66-1.46,1.46-1.46   C216.7,124.1,217.37,124.77,217.37,125.57z"/>
	<path class="st1" d="M221.65,128.5c0,0.8-0.66,1.46-1.46,1.46c-0.8,0-1.47-0.66-1.47-1.46c0-0.8,0.66-1.46,1.47-1.46   C220.99,127.04,221.65,127.7,221.65,128.5z"/>
	<path class="st1" d="M215.11,134.14c0,0.8-0.66,1.46-1.46,1.46c-0.8,0-1.46-0.66-1.46-1.46c0-0.8,0.66-1.47,1.46-1.47   C214.45,132.68,215.11,133.34,215.11,134.14z"/>
	<path class="st1" d="M181.05,158.05c0,0.81-0.66,1.47-1.46,1.47c-0.8,0-1.47-0.66-1.47-1.47c0-0.8,0.66-1.46,1.47-1.46   C180.39,156.59,181.05,157.25,181.05,158.05z"/>
	<path class="st1" d="M187.37,165.72c0,0.8-0.66,1.46-1.46,1.46c-0.8,0-1.47-0.66-1.47-1.46c0-0.8,0.66-1.47,1.47-1.47   C186.71,164.25,187.37,164.92,187.37,165.72z"/>
	<path class="st1" d="M183.31,323.73c0,0.99-0.82,1.81-1.8,1.81c-0.99,0-1.8-0.82-1.8-1.81c0-0.98,0.81-1.8,1.8-1.8   C182.49,321.92,183.31,322.74,183.31,323.73z"/>
	<path class="st1" d="M163.91,341.21c0,0.8-0.66,1.47-1.47,1.47s-1.46-0.66-1.46-1.47c0-0.8,0.66-1.47,1.46-1.47   S163.91,340.41,163.91,341.21z"/>
	<path class="st1" d="M140.68,348.32c0,0.98-0.82,1.8-1.8,1.8s-1.8-0.82-1.8-1.8c0-0.99,0.82-1.81,1.8-1.81   S140.68,347.33,140.68,348.32z"/>
	<path class="st1" d="M135.94,332.53c0,0.98-0.81,1.8-1.8,1.8c-0.99,0-1.8-0.82-1.8-1.8c0-0.99,0.82-1.81,1.8-1.81   C135.12,330.72,135.94,331.54,135.94,332.53z"/>
	<path class="st1" d="M133.23,342.56c0,0.8-0.66,1.47-1.46,1.47c-0.8,0-1.46-0.66-1.46-1.47c0-0.8,0.66-1.46,1.46-1.46   C132.57,341.1,133.23,341.76,133.23,342.56z"/>
	<path class="st1" d="M115.86,334.22c0,0.8-0.66,1.47-1.46,1.47c-0.8,0-1.47-0.66-1.47-1.47c0-0.8,0.66-1.47,1.47-1.47   C115.2,332.75,115.86,333.41,115.86,334.22z"/>
	<ellipse class="st1" cx="175.07" cy="362.41" rx="1.46" ry="1.47"/>
	<circle class="st1" cx="193" cy="348.99" r="1.8"/>
	<path class="st1" d="M196.84,366.25c0,0.8-0.66,1.46-1.46,1.46s-1.47-0.66-1.47-1.46s0.66-1.47,1.47-1.47   S196.84,365.44,196.84,366.25z"/>
	<path class="st1" d="M271.95,349.78c0,0.8-0.66,1.47-1.47,1.47c-0.8,0-1.46-0.66-1.46-1.47c0-0.8,0.66-1.46,1.46-1.46   C271.29,348.32,271.95,348.98,271.95,349.78z"/>
	<path class="st1" d="M236.99,362.19c0,0.8-0.66,1.47-1.46,1.47c-0.8,0-1.47-0.66-1.47-1.47s0.66-1.46,1.47-1.46   C236.33,360.73,236.99,361.38,236.99,362.19z"/>
	<path class="st1" d="M331.05,380.01c0,0.8-0.66,1.47-1.46,1.47c-0.8,0-1.47-0.66-1.47-1.47s0.66-1.47,1.47-1.47   C330.39,378.54,331.05,379.2,331.05,380.01z"/>
	<circle class="st1" cx="336.91" cy="310.65" r="1.8"/>
	<path class="st1" d="M324.28,320.46c0,0.8-0.66,1.46-1.46,1.46c-0.8,0-1.47-0.66-1.47-1.46c0-0.8,0.66-1.47,1.47-1.47   C323.62,318.99,324.28,319.66,324.28,320.46z"/>
	<path class="st1" d="M338.49,323.28c0,0.98-0.81,1.8-1.8,1.8c-0.98,0-1.8-0.82-1.8-1.8c0-0.99,0.82-1.8,1.8-1.8   C337.68,321.48,338.49,322.29,338.49,323.28z"/>
	<path class="st1" d="M324.28,340.76c0,0.8-0.66,1.47-1.46,1.47c-0.8,0-1.47-0.66-1.47-1.47c0-0.8,0.66-1.46,1.47-1.46   C323.62,339.3,324.28,339.96,324.28,340.76z"/>
	<path class="st1" d="M361.05,300.84c0,0.8-0.66,1.47-1.46,1.47c-0.8,0-1.47-0.66-1.47-1.47c0-0.8,0.66-1.47,1.47-1.47   C360.39,299.37,361.05,300.03,361.05,300.84z"/>
	<path class="st1" d="M364.66,309.75c0,0.98-0.81,1.8-1.8,1.8c-0.99,0-1.81-0.81-1.81-1.8c0-0.99,0.82-1.8,1.81-1.8   C363.84,307.94,364.66,308.76,364.66,309.75z"/>
	<circle class="st1" cx="388.12" cy="320.34" r="1.8"/>
	<circle class="st1" cx="362.74" cy="339.18" r="1.47"/>
	<path class="st1" d="M380.45,323.84c0,0.8-0.66,1.46-1.47,1.46c-0.8,0-1.47-0.66-1.47-1.46s0.66-1.47,1.47-1.47   C379.79,322.37,380.45,323.04,380.45,323.84z"/>
	<path class="st1" d="M377.52,347.53c0,0.8-0.66,1.46-1.46,1.46c-0.8,0-1.47-0.66-1.47-1.46c0-0.8,0.66-1.47,1.47-1.47   C376.85,346.06,377.52,346.73,377.52,347.53z"/>
	<path class="st1" d="M279.19,106.39c0.25-0.92,0.99-1.63,1.92-1.84l0.52-3.86l0.76,3.89c0.91,0.26,1.6,1,1.8,1.93l3.91,0.56   l-3.94,0.69c-0.25,0.89-0.97,1.59-1.87,1.81l-0.66,3.97l-0.67-4c-0.88-0.25-1.56-0.97-1.78-1.86l-3.77-0.61L279.19,106.39z"/>
	<path class="st1" d="M178.06,383.09c0.25-0.91,0.99-1.62,1.92-1.84l0.51-3.86l0.76,3.9c0.91,0.25,1.61,0.99,1.81,1.92l3.91,0.56   l-3.94,0.7c-0.25,0.89-0.97,1.59-1.87,1.8l-0.66,3.97l-0.67-4c-0.88-0.25-1.56-0.96-1.78-1.86l-3.77-0.61L178.06,383.09z"/>
	<path class="st1" d="M364.04,347.41c0.25-0.91,0.99-1.63,1.92-1.84l0.52-3.86l0.76,3.89c0.91,0.26,1.6,1,1.8,1.92l3.91,0.55   l-3.95,0.7c-0.25,0.89-0.97,1.59-1.87,1.81l-0.66,3.97l-0.67-4c-0.88-0.26-1.56-0.97-1.78-1.86l-3.77-0.62L364.04,347.41z"/>
	<path class="st1" d="M378.76,307.63c0.24-0.92,0.99-1.63,1.92-1.84l0.51-3.86l0.77,3.9c0.9,0.26,1.6,1,1.8,1.92l3.91,0.55   l-3.95,0.7c-0.24,0.89-0.96,1.59-1.86,1.8l-0.67,3.98l-0.66-4c-0.88-0.26-1.56-0.97-1.78-1.86l-3.77-0.62L378.76,307.63z"/>
	<path class="st1" d="M196.1,160.68c0.25-0.92,0.99-1.63,1.92-1.84l0.52-3.86l0.76,3.9c0.9,0.26,1.61,1,1.81,1.92l3.91,0.56   l-3.94,0.7c-0.25,0.89-0.96,1.59-1.87,1.81l-0.66,3.97l-0.67-4c-0.88-0.25-1.56-0.96-1.78-1.86l-3.77-0.61L196.1,160.68z"/>
	<path class="st1" d="M184.18,244.43c13.3,23.23,28.79,40.24,41.28,56.39c11.08,14.34,32.67,21.52,25.07,28.32   c-8.57,7.67-29.32-26.16-29.32-26.16c-13.79-16.62-26.99-34.27-40.45-57.35L184.18,244.43z"/>
	<path class="st2" d="M43.59,305.4c64.25-42.2,176.38-69.44,268.74-106.11c70.16-27.86,132.56-62.83,166.1-110.98   c-85,173.14-321.73,152.65-430.22,218.71L43.59,305.4z"/>
	<g>
		<defs>
			<rect id="SVGID_1_" x="100.01" y="211.96" width="285.65" height="76.83"/>
		</defs>
		<clipPath id="SVGID_2_">
			<use xlink:href="#SVGID_1_" style="overflow:visible;"/>
		</clipPath>
		<path id="A" class="st3" d="M212.3,211.96c-8.49,0-15.83,5.45-18.55,13.1l-0.03,0.1l-21.42,66.12l14.99,4.86l21.33-65.83    c0.54-1.49,1.92-2.6,3.68-2.6c1.76,0,3.14,1.1,3.68,2.6l21.33,65.83l14.99-4.86l-21.42-66.12l-0.03-0.1    C228.13,217.41,220.78,211.96,212.3,211.96z"/>
	</g>
	<path id="S" class="st1" d="M269.46,213.93c-12.42,0-22.66,10.24-22.66,22.66c0,12.42,10.25,22.66,22.67,22.66h19.7   c3.9,0,6.9,2.99,6.9,6.89c0,3.9-2.99,6.89-6.89,6.89l-44.39-0.02l-0.01,15.76l44.39,0.02h0c12.42,0,22.66-10.23,22.66-22.65   c0-12.42-10.24-22.65-22.66-22.65h-19.7c-3.92,0-6.91-3-6.91-6.9s3-6.9,6.9-6.9h38.43v-15.76H269.46z"/>
	<g>
		<defs>
			<rect id="SVGID_3_" x="107.01" y="211.96" width="285.65" height="76.83"/>
		</defs>
		<clipPath id="SVGID_4_">
			<use xlink:href="#SVGID_3_" style="overflow:visible;"/>
		</clipPath>
		<path id="path3841" class="st4" d="M349.62,211.96c-8.49,0-15.84,5.44-18.56,13.09l-0.04,0.1l-21.46,66.13l14.99,4.86l21.36-65.83    c0.54-1.49,1.93-2.6,3.71-2.6c1.78,0,3.17,1.11,3.71,2.61c0,0,0,0,0,0l21.35,65.81l14.99-4.86l-21.46-66.13l-0.04-0.1    C365.46,217.4,358.11,211.96,349.62,211.96z"/>
	</g>
	<path class="st2" d="M93.34,406.44C222.37,274.74,414.7,213.89,478.43,88.31c-38.37,122.1-243.89,189.44-385.44,324.32   L93.34,406.44z"/>
	<path class="st1" d="M180.75,245.62c-1.51-2.59-3.02-5.25-4.54-7.98c-34.4-61.89-29.44-125.04,32.82-97.52   c52.84,23.36,103.31,88.87,123.6,135.4c9.41,21.55,34.63,106.17-46.58,71.88l-0.16-0.49c76.69,31.58,63.43-48.45,22.38-109.8   c-23.23-34.72-53.53-63.64-72.64-77.59c-63.61-46.47-102.41-18.05-57.74,73.08c2.02,4.13,4.12,8.06,6.28,11.83L180.75,245.62z"/>
</g>
<path id="N" class="st1" d="M118.68,211.96c-10.79,0-19.7,8.91-19.7,19.7v57.13h15.76v-57.13c0-2.27,1.67-3.94,3.94-3.94  c1.75,0,3.11,1.09,3.66,2.57l13.16,47.11l0.09,0.26c2.72,7.65,10.06,13.1,18.54,13.1c10.79,0,19.7-8.91,19.7-19.7v-57.13h-15.76  v57.13c0,2.27-1.67,3.94-3.94,3.94c-1.75,0-3.11-1.09-3.66-2.57l-13.16-47.11l-0.09-0.26C134.5,217.41,127.16,211.96,118.68,211.96z  "/>
</svg>