<?xml version="1.0" encoding="UTF-8" standalone="no"?>
<svg xmlns:rdf="http://www.w3.org/1999/02/22-rdf-syntax-ns#" xmlns="http://www.w3.org/2000/svg" xml:space="preserve" height="172.06" width="152" version="1.1" xmlns:cc="http://creativecommons.org/ns#" xmlns:dc="http://purl.org/dc/elements/1.1/" viewBox="0 0 152 172.06009"><g><path d="m78.119 81.838h-3.93l1.965-5.0588 1.965 5.0588zm61.149 46.7c-2.2576-5.7695-6.0047-15.346-10.29-26.295-9.6603-24.698-17.92-45.811-22.856-58.424h5.7408v-42.762h-71.215v42.762h5.7172c-4.6015 11.758-12.077 30.865-20.784 53.122-5.1345 13.125-9.7491 24.925-12.359 31.596h-11.983v42.579h65.03v-42.579h-6.1562c0.20381-0.68722 0.42069-1.4084 0.65064-2.1714 0.13065-0.44159 0.26391-0.88842 0.39718-1.33h30.164c0.13588 0.44159 0.26914 0.89103 0.4024 1.3326 0.22994 0.76299 0.44421 1.4868 0.65064 2.1688h-6.2477v42.579h65.108v-42.579h-11.97z" fill="#fff"/><path d="m81.281 84.007h-10.253l5.1267-13.193 5.1267 13.193zm56.511 46.7c-2.174-5.5474-6.1928-15.827-10.849-27.721-10.17-26.012-19.17-49.006-23.99-61.327h6.7468v-38.437h-66.888v38.437h6.7232c-4.415 11.291-12.388 31.659-21.805 55.736-5.524 14.131-10.52 26.881-13.031 33.311h-11.293v38.252h60.703v-38.252h-6.9035c0.42853-1.4215 0.91978-3.0624 1.4868-4.9516 0.2822-0.95374 0.58009-1.9441 0.86229-2.8769h33.386c0.27959 0.93284 0.57486 1.9232 0.85968 2.8743 0.56702 1.8918 1.0609 3.5302 1.4868 4.9542h-6.9924v38.252h60.784v-38.252h-11.283z" fill="#fc0"/><g><path d="m76.159 57.668 12.083 31.095h-24.165l12.083-31.095zm58.387 77.794c-1.59-4.04-6.48-16.55-12-30.66-10.31-26.361-22.751-58.159-26.566-67.9h8.9626v-28.915h-57.368v28.915h8.9365c-3.537 9.028-14.498 37.044-24.36 62.26-6.606 16.88-12.451 31.82-14.204 36.3h-9.7831v28.738h51.183v-28.738h-8.5523c0.69244-2.2707 1.7768-5.874 3.3342-11.079 0.71074-2.3752 1.4398-4.8053 1.8814-6.266h40.465c0.45205 1.4816 1.1732 3.9038 1.884 6.2634 1.5573 5.2077 2.6444 8.811 3.3342 11.082h-8.6412v28.738h51.264v-28.738h-9.7752z" fill="#fff"/><path d="m142.16 162.03h-46.935v-24.403h9.4329c-0.42853-1.0713-6.3783-21.184-6.5795-21.68h-43.65c-0.2012 0.49647-6.1484 20.609-6.5795 21.68h9.3441v24.403h-46.856v-24.403h9.0959c0.211-0.53 39.801-101.75 40.261-102.9h-9.9451v-24.586h53.041v24.586h-9.9712c0.4625 1.1523 40.049 102.37 40.261 102.9h9.0828v24.403zm-81.241-71.105h30.491l-15.243-39.233-15.244 39.234z" fill="#222"/><path d="m111.23 106.35s-0.85184 1.7011-1.3797 2.3386c0 0 0.52782 1.2752 1.3248 0.79697 0.79957-0.48079 0.64018-2.0225 0.0549-3.1356m-10.381-0.71596c0.33708-0.40502 1.3248-1.6566 1.573-2.6992 0.3031-1.2595 0.21949-2.2994-0.16201-2.5451-0.3815-0.24824-1.2595 0.51998-1.398 3.5563-0.0261 0.60099-0.0287 1.1628-0.0131 1.688m-4.7321 0c0.33708-0.40502 1.3248-1.6566 1.5756-2.6992 0.3005-1.2595 0.21688-2.2994-0.16201-2.5451-0.38672-0.24824-1.2621 0.51998-1.398 3.5563-0.02874 0.60099-0.03136 1.1628-0.01568 1.688m-13.857-3.8307c-0.8231-0.36582-1.1602 0.31356-1.5234 2.66-0.36321 2.3491 0.14372 3.4361 0.55396 3.3368 0.41285-0.0941 0.77345-0.79696 0.75254-1.6671-0.02352-0.87013 0.21688-4.3297 0.21688-4.3297m-24.455 1.4267c-0.39718-0.19336-0.9851 0-0.9851 1.1497v2.579c0 0.61667 1.0583 2.4144 1.1863 0.29004 0.16462-2.7071 0.12542-3.8516-0.2012-4.0188m55.338-0.33708c0 0.85184-0.0523 3.7758-0.0523 5.1581 0 1.3849-0.31879 2.8691-1.4372 2.8691-1.1131 0-2.1244-0.9041-2.1244-0.9041s-1.7533 0.53044-2.6052-0.15678c-0.84923-0.69245-1.0609-1.7063-0.79697-3.5093l0.26391-1.8082-0.52782-0.15939s-0.74732 4.6224-3.0206 5.9002c-0.55396 0.31095-2.417 0.65325-3.3211-1.8265-0.31879 0.45727-0.77084 1.053-1.1471 1.3509-0.45205 0.35798-2.2289 0.87274-3.2767-0.93284-1.4006 1.479-2.7672 0.82309-3.1826-0.2613-0.45728-1.202-0.31879-2.8691-0.2822-3.93 0.03658-1.0661-1.0975-0.39195-1.134 0.17507-0.03397 0.56702-0.1411 2.0172-0.35276 3.8986-0.14633 1.2725-0.42592 1.6671-0.95897 1.3483-0.33185-0.19859-0.56702-0.5226-0.70812-1.1445-0.39456 0.38411-1.0217 0.83354-1.7403 0.77606-0.59838-0.0444-0.96681-0.44944-1.2046-1.006-1.5155 0.82048-2.7907 0.13327-2.7907 0.13327s-1.6201 1.7246-2.566 0.68199c-0.23256-0.25869-0.47034-0.71074-0.64802-1.3614-0.21949 0.43375-0.71074 1.2882-1.4345 1.6749-0.99033 0.53305-1.7376 0.034-2.3386-1.4554-0.10975-0.27698-0.18552-0.64541-0.23778-1.0661-1.5234 2.046-3.1434 1.884-3.5903 0.71335-0.45989-1.2072-0.31879-2.8743-0.2822-3.9378 0.03397-1.0583-1.1001-0.38934-1.1367 0.17769-0.03397 0.56702-0.1411 2.0251-0.35276 3.9012-0.14372 1.2673-0.42331 1.6671-0.95636 1.3457-0.33969-0.19859-0.57486-0.53567-0.71596-1.1706-0.44944 0.46772-1.2987 1.2072-2.221 1.2778-0.62712 0.0444-1.0713-0.47034-1.33-1.1602-0.46773 0.5017-1.1523 1.1158-1.6775 1.1027-1.1889-0.0444-1.641-1.4398-1.641-2.2994v-2.3804c-0.19075 0.24563-0.49647 0.57486-0.81787 0.7029-0.35798 0.13326-0.73948 0.24301-1.2307 0.15939v1.3927c0 2.1322-0.85968 2.9945-2.336 2.2968-0.8048-0.37888-1.2359-1.1001-1.4685-1.7873-0.16984 0.67415-0.65848 2.1165-1.7272 2.1165-1.3927 0-2.0068-1.7638-2.0068-3.896v-5.2077c0-0.69245-0.36843-1.3483-0.9851-0.40502-0.61667 0.94329-0.73948 1.4293-0.73948 2.1322v5.2835c0 0.94329-0.57225 1.5992-1.5155 1.5992-0.94329 0-1.1471-0.53044-1.1471-2.1322v-5.6519c0-0.73947-0.45466-1.9676-1.0243-0.65847-0.57486 1.3143-0.86229 2.4222-0.86229 3.3629v3.6478c0 0.61667-0.081 1.5208-1.0243 1.5208-0.94329 0-1.4345-0.45727-1.4345-2.3439v-5.3697c0-1.9232 0.24824-2.9083-0.081-3.0729-0.32924-0.15939-0.9041 0.20904-3.1983 2.4223l-0.82048-0.9041s3.2819-2.7855 4.4682-3.7314c1.1889-0.94329 2.9919-0.81787 3.2375 0.86229 0 0 0.94852-1.2882 1.8448-1.3927 1.3953-0.16201 1.5573 2.6208 1.5573 2.6208s0.97204-1.2569 1.7638-2.2942c1.0661-1.3953 2.3334-1.0217 2.3334 0.85968 0 1.8892-0.28482 7.0107-0.36582 8.649-0.07578 1.492 0.763 2.5033 1.5338 1.2229-0.04442-0.27437-0.0601-0.51477-0.0601-0.68984v-3.9744c0-3.2427 2.1218-3.4204 2.8717-3.0337 1.0217 0.53305 1.1863 1.6828 1.1863 2.9893 0 1.8082 0.63235 2.1113 1.1053 1.7638 0.4024-0.29265 0.7238-0.64279 0.94329-0.90932v-2.5738c0-1.1079 0.85968-1.1079 1.2307-0.73687 0.41024 0.41285 0.28743 0.82048 0.28743 1.5547v4.9203c0 1.6802 0.53305 1.8866 0.94329 1.6802 0.23517-0.1202 0.45466-0.50431 0.60099-0.81525-0.05487-1.4424 0.06794-5.3122 0.29788-6.2764 0.25085-1.0243 0.82832-1.1968 1.2281-0.90932 0.44944 0.32923 0.32924 1.0295 0.29004 1.6462-0.04181 0.62189-0.24562 1.7664-0.41024 3.7732-0.16462 2.0094 0.09929 2.8769 0.86229 2.7463 0.45728-0.0784 1.1131-1.0243 1.4032-1.4737 0.0078-1.6253 0.25346-3.9012 0.39195-5.3122 0.17768-1.8082 0.90932-1.7768 1.3797-1.526 0.45989 0.25346 0.42592 1.4162 0.42592 1.4162s0.92239-1.1314 1.7376-1.6645c0.81526-0.52783 1.0635 0.07316 1.0295 0.95897-0.03658 0.8832-0.10713 3.3342-0.10713 4.9595 0 1.6331 0.38934 1.8108 1.0269 1.3483 0.55396-0.39979 1.0792-1.4894 1.2072-1.7716 0.02874-1.3535 0.13065-2.7828 0.16201-3.8124-0.58009 0.008-1.1419 0.0261-1.4763 0.0523-0.77867 0.0758-0.53044-0.60099 0.03658-0.63496 0.4834-0.0314 0.925-0.21166 1.4633-0.26392 0.05749-1.7847 0.23517-3.3812 0.23517-4.5205 0-1.2386 0.7238-0.98771 1.1706-0.77606 0.6036 0.2822 0.53305 0.59838 0.38934 1.7011-0.06271 0.49124-0.19075 1.9127-0.31356 3.5589 0.47295-0.0157 0.61667 0 1.1654 0.15939 0.84922 0.24824 0 0.70551-0.67415 0.70551-0.13588 0-0.33185 0-0.55134 0.003-0.12542 1.7873-0.22994 3.6922-0.22994 4.9281 0 2.6234 0.95897 2.5869 1.492 2.0172 0.53305-0.56441 0.74209-1.4502 0.74209-1.4502l0.29527 0.60883c-0.15155-1.0583-0.15939-2.4406 0.13065-4.173 0.6036-3.6033 2.1061-3.5563 2.566-3.3864 0.45989 0.16984 0.89365 0.70028 1.1367 1.0661 0.24301 0.36059 0.82571 0.62712 0.82571 0.62712 0.28743 0.12281 0.14372 0.39195 0.0209 1.0896-0.1202 0.7029-0.26653 2.2785-0.38672 3.5119-0.1202 1.236 0.28743 1.8631 0.72641 1.8134 0.27175-0.0288 0.61406-0.23256 0.83877-0.38934-0.12542-1.1079-0.08884-3.0938-0.08884-4.7426 0-1.8631 0.50954-2.3491 1.2595-2.221 0.4625 0.0653 0.60622 0.79436 0.4834 1.5966-0.1202 0.79435-0.21688 2.1766-0.26914 4.2566-0.04442 2.08 0.70551 2.2028 1.0687 1.9388 0.25869-0.19075 0.53828-0.53567 0.67938-0.72119v-0.0235c-0.03658-1.6331 0.2404-4.1573 0.38934-5.6702 0.17768-1.8108 0.91194-1.7794 1.3823-1.526 0.4625 0.24824 0.42592 1.4162 0.42592 1.4162s0.92239-1.134 1.735-1.6697c0.81526-0.52782 1.0635 0.0758 1.0269 0.95897-0.03136 0.89104-0.10713 3.3368-0.10713 4.9621 0 1.6305 0.33708 2.3543 0.97204 1.897 0.14372-0.10714 0.2822-0.25346 0.41547-0.42592-0.16201-0.68722-0.26653-1.5286-0.26653-2.5843 0-3.7784 1.6828-6.3261 3.491-5.4742 1.7821 0.83877 2.0538 5.2809-1.5756 7.6378 0.16201 1.1785 0.49908 1.9388 1.053 2.0225 0.79696 0.11236 1.4058-0.7029 1.965-1.6671-0.13849-0.68983-0.2221-1.5103-0.2221-2.5189 0-3.7784 1.7037-6.3261 3.5119-5.4742 1.7794 0.83877 1.8552 5.2051-1.5783 7.6378 0.16462 1.1785 0.49647 2.0225 1.0557 2.0225 0.66108 0 1.884-0.96159 2.6287-3.6713 0.7421-2.7123 0.84923-4.254 0.84923-4.6799 0-0.42592 0.31878-0.47818 0.79696-0.10713 0.47818 0.36843 1.0112 0.63495 1.3797 0.63495 0.37627 0 0.64018 0.32402 0.42853 1.33-0.21165 1.0138-0.69245 3.6739-0.74209 4.7348-0.0549 1.0635 0.74209 2.1792 1.9101 0.37366 1.1706-1.8108 1.6488-5.3175 2.0198-6.4881 0.37105-1.168 0.69244-1.168 1.0112-0.9041 0.31879 0.26653 0 0.58531 0.31879 0.79435 0.3214 0.21427 0.53044 0.96159 0.53044 1.8108m-27.885-5.746c0-0.62973 0.47818-1.1393 1.0687-1.1393 0.58792 0 1.0635 0.50954 1.0635 1.1393 0 0.62712-0.47557 1.1393-1.0635 1.1393-0.59054 0-1.0687-0.51215-1.0687-1.1393" fill="#fff"/></g></g></svg>